# xmcd
# 
# Track frame offsets:
#     150
#     16640
#     33456
#     47439
#     59161
#     80249
#     100981
#     125598
#     140122
#     163499
#     179345
# 
# Disc length: 2709
# 
# Revision: 0
# Processed by: cddbd v1.5.2PL0 Copyright (c) Steve Scherf et al.
# Submitted via: fre:ac v1.1beta1pre4
# 
DISCID=a00a930b
DTITLE=Faces - A Nod Is As Good As a Wink... to a Blind Horse
DYEAR=1971
DGENRE=Blues
TTITLE0=Miss Judy's Farm
TTITLE1=You're So Rude
TTITLE2=Love Lives Here
TTITLE3=Last Orders Please
TTITLE4=Stay with Me
TTITLE5=Debris
TTITLE6=Memphis, Tennessee
TTITLE7=Too Bad
TTITLE8=That's All You Need
TTITLE9=Miss Judy's Farm [BBC Session]
TTITLE10=Stay With Me [BBC Session]
EXTD=
EXTT0=
EXTT1=
EXTT2=
EXTT3=
EXTT4=
EXTT5=
EXTT6=
EXTT7=
EXTT8=
EXTT9=
EXTT10=
PLAYORDER=
